{
    "patcher": {
        "fileversion": 1,
        "appversion": {
            "major": 9,
            "minor": 1,
            "revision": 2,
            "architecture": "x64",
            "modernui": 1
        },
        "classnamespace": "box",
        "rect": [ 59.0, 104.0, 410.0, 398.0 ],
        "boxes": [
            {
                "box": {
                    "id": "obj-39",
                    "linecount": 3,
                    "maxclass": "comment",
                    "numinlets": 1,
                    "numoutlets": 0,
                    "patching_rect": [ 227.51092645525932, 170.58822512626648, 48.739492893218994, 47.0 ],
                    "text": "number of steps"
                }
            },
            {
                "box": {
                    "id": "obj-37",
                    "maxclass": "newobj",
                    "numinlets": 1,
                    "numoutlets": 2,
                    "outlettype": [ "float", "bang" ],
                    "patching_rect": [ 585.8035185039043, 129.9541536271572, 29.5, 22.0 ],
                    "text": "t f b"
                }
            },
            {
                "box": {
                    "id": "obj-36",
                    "maxclass": "newobj",
                    "numinlets": 1,
                    "numoutlets": 2,
                    "outlettype": [ "bang", "float" ],
                    "patching_rect": [ 23.14410576224327, 327.51093059778214, 29.5, 22.0 ],
                    "text": "t b f"
                }
            },
            {
                "box": {
                    "id": "obj-35",
                    "maxclass": "comment",
                    "numinlets": 1,
                    "numoutlets": 0,
                    "patching_rect": [ 103.9301353096962, 297.06988126039505, 150.0, 20.0 ],
                    "text": "<= fc and fm"
                }
            },
            {
                "box": {
                    "id": "obj-33",
                    "maxclass": "newobj",
                    "numinlets": 1,
                    "numoutlets": 2,
                    "outlettype": [ "float", "float" ],
                    "patching_rect": [ 23.14410576224327, 296.06988126039505, 61.0, 22.0 ],
                    "text": "unpack f f"
                }
            },
            {
                "box": {
                    "id": "obj-61",
                    "maxclass": "newobj",
                    "numinlets": 4,
                    "numoutlets": 1,
                    "outlettype": [ "" ],
                    "patching_rect": [ 23.14410576224327, 254.58516338467598, 275.0, 22.0 ],
                    "text": "vexpr $f4 * pow( $f2\\, ( $f1 / $f3 ) ) @scalarmode 1"
                }
            },
            {
                "box": {
                    "id": "obj-31",
                    "maxclass": "comment",
                    "numinlets": 1,
                    "numoutlets": 0,
                    "patching_rect": [ 639.3013365268707, 124.45415362715721, 61.135373711586, 20.0 ],
                    "text": "duration"
                }
            },
            {
                "box": {
                    "id": "obj-29",
                    "maxclass": "comment",
                    "numinlets": 1,
                    "numoutlets": 0,
                    "patching_rect": [ 489.9563521742821, 124.45415362715721, 68.55895480513573, 20.0 ],
                    "text": "mod depth"
                }
            },
            {
                "box": {
                    "id": "obj-27",
                    "maxclass": "comment",
                    "numinlets": 1,
                    "numoutlets": 0,
                    "patching_rect": [ 353.0, 124.45415362715721, 62.88209867477417, 20.0 ],
                    "text": "ref pitch"
                }
            },
            {
                "box": {
                    "id": "obj-25",
                    "linecount": 2,
                    "maxclass": "comment",
                    "numinlets": 1,
                    "numoutlets": 0,
                    "patching_rect": [ 227.51092645525932, 124.45415362715721, 55.0218363404274, 33.0 ],
                    "text": "tone division"
                }
            },
            {
                "box": {
                    "id": "obj-23",
                    "linecount": 3,
                    "maxclass": "comment",
                    "numinlets": 1,
                    "numoutlets": 0,
                    "patching_rect": [ 103.9301353096962, 124.45415362715721, 51.528386414051056, 47.0 ],
                    "text": "octave stretch factor"
                }
            },
            {
                "box": {
                    "id": "obj-21",
                    "maxclass": "newobj",
                    "numinlets": 1,
                    "numoutlets": 5,
                    "outlettype": [ "float", "float", "float", "float", "float" ],
                    "patching_rect": [ 58.951967507600784, 94.7598292529583, 545.8515509963036, 22.0 ],
                    "text": "unpack f f f f f"
                }
            },
            {
                "box": {
                    "id": "obj-17",
                    "maxclass": "newobj",
                    "numinlets": 2,
                    "numoutlets": 2,
                    "outlettype": [ "", "" ],
                    "patching_rect": [ 23.0, 56.33188006281853, 55.0, 22.0 ],
                    "text": "zl slice 2"
                }
            },
            {
                "box": {
                    "id": "obj-14",
                    "maxclass": "comment",
                    "numinlets": 1,
                    "numoutlets": 0,
                    "patching_rect": [ 283.51649737358093, 372.527490735054, 70.0, 20.0 ],
                    "text": "mod depth"
                }
            },
            {
                "box": {
                    "id": "obj-9",
                    "maxclass": "comment",
                    "numinlets": 1,
                    "numoutlets": 0,
                    "patching_rect": [ 87.9120922088623, 546.1538728475571, 26.0, 20.0 ],
                    "text": "fc"
                }
            },
            {
                "box": {
                    "color": [ 0.16862745098039217, 1.0, 0.0, 1.0 ],
                    "id": "obj-89",
                    "maxclass": "newobj",
                    "numinlets": 2,
                    "numoutlets": 1,
                    "outlettype": [ "signal" ],
                    "patching_rect": [ 35.16483688354492, 510.98903596401215, 149.6721649169922, 22.0 ],
                    "text": "+~"
                }
            },
            {
                "box": {
                    "format": 6,
                    "id": "obj-76",
                    "maxclass": "flonum",
                    "numinlets": 1,
                    "numoutlets": 2,
                    "outlettype": [ "", "bang" ],
                    "parameter_enable": 0,
                    "patching_rect": [ 220.87913167476654, 371.42858958244324, 50.0, 22.0 ]
                }
            },
            {
                "box": {
                    "id": "obj-77",
                    "maxclass": "newobj",
                    "numinlets": 2,
                    "numoutlets": 1,
                    "outlettype": [ "signal" ],
                    "patching_rect": [ 92.30769681930542, 448.35167026519775, 147.3442211151123, 22.0 ],
                    "text": "*~"
                }
            },
            {
                "box": {
                    "id": "obj-79",
                    "maxclass": "comment",
                    "numinlets": 1,
                    "numoutlets": 0,
                    "patching_rect": [ 153.84616136550903, 371.42858958244324, 23.163841545581818, 20.0 ],
                    "text": "fm"
                }
            },
            {
                "box": {
                    "format": 6,
                    "id": "obj-83",
                    "maxclass": "flonum",
                    "numinlets": 1,
                    "numoutlets": 2,
                    "outlettype": [ "", "bang" ],
                    "parameter_enable": 0,
                    "patching_rect": [ 92.30769681930542, 371.42858958244324, 50.0, 22.0 ]
                }
            },
            {
                "box": {
                    "color": [ 0.5647058823529412, 0.0, 1.0, 1.0 ],
                    "id": "obj-87",
                    "maxclass": "newobj",
                    "numinlets": 2,
                    "numoutlets": 1,
                    "outlettype": [ "signal" ],
                    "patching_rect": [ 92.30769681930542, 407.69232761859894, 43.0, 22.0 ],
                    "text": "cycle~"
                }
            },
            {
                "box": {
                    "color": [ 1.0, 0.0, 0.0, 1.0 ],
                    "id": "obj-88",
                    "maxclass": "newobj",
                    "numinlets": 2,
                    "numoutlets": 1,
                    "outlettype": [ "signal" ],
                    "patching_rect": [ 35.16483688354492, 545.0549716949463, 43.0, 22.0 ],
                    "text": "cycle~"
                }
            },
            {
                "box": {
                    "bgmode": 0,
                    "border": 0,
                    "clickthrough": 0,
                    "enablehscroll": 0,
                    "enablevscroll": 0,
                    "id": "obj-18",
                    "lockeddragscroll": 0,
                    "lockedsize": 0,
                    "maxclass": "bpatcher",
                    "name": "z.credits.v01.bp.maxpat",
                    "numinlets": 0,
                    "numoutlets": 0,
                    "offset": [ 0.0, 0.0 ],
                    "patching_rect": [ 1300.0, 61.0, 244.0, 75.0 ],
                    "viewvisibility": 1
                }
            },
            {
                "box": {
                    "color": [ 0.317647, 0.654902, 0.976471, 1.0 ],
                    "id": "obj-12",
                    "maxclass": "newobj",
                    "numinlets": 0,
                    "numoutlets": 1,
                    "outlettype": [ "" ],
                    "patching_rect": [ 353.60016164183617, 657.1428892612457, 58.0, 22.0 ],
                    "text": "r mute.all"
                }
            },
            {
                "box": {
                    "id": "obj-11",
                    "maxclass": "message",
                    "numinlets": 2,
                    "numoutlets": 1,
                    "outlettype": [ "" ],
                    "patching_rect": [ 199.75400027632713, 657.1428892612457, 63.0, 22.0 ],
                    "text": "mute 1, 0"
                }
            },
            {
                "box": {
                    "id": "obj-10",
                    "maxclass": "message",
                    "numinlets": 2,
                    "numoutlets": 1,
                    "outlettype": [ "" ],
                    "patching_rect": [ 290.9627959430218, 657.1428892612457, 59.0, 22.0 ],
                    "text": "mute 0, 1"
                }
            },
            {
                "box": {
                    "color": [ 0.317647, 0.654902, 0.976471, 1.0 ],
                    "id": "obj-7",
                    "maxclass": "newobj",
                    "numinlets": 1,
                    "numoutlets": 3,
                    "outlettype": [ "int", "int", "int" ],
                    "patching_rect": [ 290.9627959430218, 698.9011330604553, 56.0, 22.0 ],
                    "text": "thispoly~"
                }
            },
            {
                "box": {
                    "color": [ 0.317647, 0.654902, 0.976471, 1.0 ],
                    "id": "obj-4",
                    "maxclass": "newobj",
                    "numinlets": 1,
                    "numoutlets": 1,
                    "outlettype": [ "" ],
                    "patching_rect": [ 23.0, 10.0, 28.0, 22.0 ],
                    "saved_object_attributes": {
                        "attr_comment": "",
                        "c": ""
                    },
                    "text": "in 1"
                }
            },
            {
                "box": {
                    "color": [ 0.317647, 0.654902, 0.976471, 1.0 ],
                    "id": "obj-3",
                    "maxclass": "newobj",
                    "numinlets": 1,
                    "numoutlets": 0,
                    "patching_rect": [ 131.62212881445885, 698.9011330604553, 35.0, 22.0 ],
                    "saved_object_attributes": {
                        "attr_comment": "",
                        "c": ""
                    },
                    "text": "out 2"
                }
            },
            {
                "box": {
                    "color": [ 0.317647, 0.654902, 0.976471, 1.0 ],
                    "id": "obj-2",
                    "maxclass": "newobj",
                    "numinlets": 1,
                    "numoutlets": 0,
                    "patching_rect": [ 86.56718155741692, 698.9011330604553, 35.0, 22.0 ],
                    "saved_object_attributes": {
                        "attr_comment": "",
                        "c": ""
                    },
                    "text": "out 1"
                }
            },
            {
                "box": {
                    "color": [ 0.317647, 0.654902, 0.976471, 1.0 ],
                    "id": "obj-1",
                    "maxclass": "newobj",
                    "numinlets": 1,
                    "numoutlets": 0,
                    "patching_rect": [ 34.91882738471031, 698.9011330604553, 42.0, 22.0 ],
                    "saved_object_attributes": {
                        "attr_comment": "",
                        "c": ""
                    },
                    "text": "out~ 1"
                }
            },
            {
                "box": {
                    "id": "obj-68",
                    "maxclass": "message",
                    "numinlets": 2,
                    "numoutlets": 1,
                    "outlettype": [ "" ],
                    "patching_rect": [ 224.36973452568054, 510.98903596401215, 81.0, 22.0 ],
                    "text": "setdomain $1"
                }
            },
            {
                "box": {
                    "addpoints": [ 0.0, 0.0, 0, 892.5925925925945, 1.0, 0, 1999.9999999999989, 0.0, 0 ],
                    "classic_curve": 1,
                    "domain": 2000.0,
                    "id": "obj-65",
                    "maxclass": "function",
                    "numinlets": 1,
                    "numoutlets": 4,
                    "outlettype": [ "float", "", "", "bang" ],
                    "parameter_enable": 0,
                    "patching_rect": [ 109.64410576224327, 573.6264016628265, 102.0, 48.0 ]
                }
            },
            {
                "box": {
                    "color": [ 0.862745, 0.741176, 0.137255, 1.0 ],
                    "id": "obj-66",
                    "maxclass": "newobj",
                    "numinlets": 2,
                    "numoutlets": 2,
                    "outlettype": [ "signal", "bang" ],
                    "patching_rect": [ 137.11663457751274, 627.4725581407547, 81.0, 22.0 ],
                    "text": "line~"
                }
            },
            {
                "box": {
                    "color": [ 0.862745, 0.741176, 0.137255, 1.0 ],
                    "id": "obj-60",
                    "maxclass": "newobj",
                    "numinlets": 2,
                    "numoutlets": 1,
                    "outlettype": [ "signal" ],
                    "patching_rect": [ 34.91882738471031, 657.1428892612457, 121.5, 22.0 ],
                    "text": "*~"
                }
            }
        ],
        "lines": [
            {
                "patchline": {
                    "destination": [ "obj-7", 0 ],
                    "source": [ "obj-10", 0 ]
                }
            },
            {
                "patchline": {
                    "destination": [ "obj-7", 0 ],
                    "source": [ "obj-11", 0 ]
                }
            },
            {
                "patchline": {
                    "destination": [ "obj-7", 0 ],
                    "source": [ "obj-12", 0 ]
                }
            },
            {
                "patchline": {
                    "destination": [ "obj-21", 0 ],
                    "source": [ "obj-17", 1 ]
                }
            },
            {
                "patchline": {
                    "destination": [ "obj-61", 0 ],
                    "source": [ "obj-17", 0 ]
                }
            },
            {
                "patchline": {
                    "destination": [ "obj-37", 0 ],
                    "source": [ "obj-21", 4 ]
                }
            },
            {
                "patchline": {
                    "destination": [ "obj-61", 3 ],
                    "source": [ "obj-21", 2 ]
                }
            },
            {
                "patchline": {
                    "destination": [ "obj-61", 2 ],
                    "source": [ "obj-21", 1 ]
                }
            },
            {
                "patchline": {
                    "destination": [ "obj-61", 1 ],
                    "source": [ "obj-21", 0 ]
                }
            },
            {
                "patchline": {
                    "destination": [ "obj-76", 0 ],
                    "source": [ "obj-21", 3 ]
                }
            },
            {
                "patchline": {
                    "destination": [ "obj-83", 0 ],
                    "source": [ "obj-33", 1 ]
                }
            },
            {
                "patchline": {
                    "color": [ 0.0, 0.45622044801712036, 0.0, 1.0 ],
                    "destination": [ "obj-65", 0 ],
                    "source": [ "obj-36", 0 ]
                }
            },
            {
                "patchline": {
                    "destination": [ "obj-89", 0 ],
                    "source": [ "obj-36", 1 ]
                }
            },
            {
                "patchline": {
                    "destination": [ "obj-10", 0 ],
                    "source": [ "obj-37", 1 ]
                }
            },
            {
                "patchline": {
                    "destination": [ "obj-68", 0 ],
                    "source": [ "obj-37", 0 ]
                }
            },
            {
                "patchline": {
                    "destination": [ "obj-17", 0 ],
                    "source": [ "obj-4", 0 ]
                }
            },
            {
                "patchline": {
                    "destination": [ "obj-1", 0 ],
                    "source": [ "obj-60", 0 ]
                }
            },
            {
                "patchline": {
                    "destination": [ "obj-33", 0 ],
                    "source": [ "obj-61", 0 ]
                }
            },
            {
                "patchline": {
                    "destination": [ "obj-66", 0 ],
                    "source": [ "obj-65", 1 ]
                }
            },
            {
                "patchline": {
                    "destination": [ "obj-11", 0 ],
                    "source": [ "obj-66", 1 ]
                }
            },
            {
                "patchline": {
                    "destination": [ "obj-60", 1 ],
                    "source": [ "obj-66", 0 ]
                }
            },
            {
                "patchline": {
                    "destination": [ "obj-65", 0 ],
                    "source": [ "obj-68", 0 ]
                }
            },
            {
                "patchline": {
                    "destination": [ "obj-77", 1 ],
                    "source": [ "obj-76", 0 ]
                }
            },
            {
                "patchline": {
                    "destination": [ "obj-89", 1 ],
                    "source": [ "obj-77", 0 ]
                }
            },
            {
                "patchline": {
                    "destination": [ "obj-87", 0 ],
                    "source": [ "obj-83", 0 ]
                }
            },
            {
                "patchline": {
                    "destination": [ "obj-77", 0 ],
                    "source": [ "obj-87", 0 ]
                }
            },
            {
                "patchline": {
                    "destination": [ "obj-60", 0 ],
                    "source": [ "obj-88", 0 ]
                }
            },
            {
                "patchline": {
                    "destination": [ "obj-88", 0 ],
                    "source": [ "obj-89", 0 ]
                }
            }
        ],
        "autosave": 0
    }
}