{
    "patcher": {
        "fileversion": 1,
        "appversion": {
            "major": 9,
            "minor": 1,
            "revision": 2,
            "architecture": "x64",
            "modernui": 1
        },
        "classnamespace": "box",
        "rect": [ 648.0, 100.0, 904.0, 515.0 ],
        "boxes": [
            {
                "box": {
                    "id": "obj-68",
                    "maxclass": "message",
                    "numinlets": 2,
                    "numoutlets": 1,
                    "outlettype": [ "" ],
                    "patching_rect": [ 202.9081621170044, 391.83673095703125, 35.0, 22.0 ],
                    "text": "clear"
                }
            },
            {
                "box": {
                    "id": "obj-66",
                    "maxclass": "newobj",
                    "numinlets": 2,
                    "numoutlets": 1,
                    "outlettype": [ "signal" ],
                    "patching_rect": [ 36.73469352722168, 741.8367276191711, 40.0, 22.0 ],
                    "text": "*~ 0.5"
                }
            },
            {
                "box": {
                    "id": "obj-65",
                    "maxclass": "newobj",
                    "numinlets": 2,
                    "numoutlets": 1,
                    "outlettype": [ "signal" ],
                    "patching_rect": [ 36.73469352722168, 708.1632585525513, 43.0, 22.0 ],
                    "text": "cycle~"
                }
            },
            {
                "box": {
                    "id": "obj-64",
                    "maxclass": "newobj",
                    "numinlets": 2,
                    "numoutlets": 1,
                    "outlettype": [ "signal" ],
                    "patching_rect": [ 36.73469352722168, 673.4693813323975, 29.5, 22.0 ],
                    "text": "+~"
                }
            },
            {
                "box": {
                    "id": "obj-63",
                    "maxclass": "newobj",
                    "numinlets": 2,
                    "numoutlets": 1,
                    "outlettype": [ "signal" ],
                    "patching_rect": [ 46.98469352722168, 634.6938714981079, 29.5, 22.0 ],
                    "text": "*~"
                }
            },
            {
                "box": {
                    "id": "obj-60",
                    "maxclass": "newobj",
                    "numinlets": 2,
                    "numoutlets": 1,
                    "outlettype": [ "signal" ],
                    "patching_rect": [ 46.98469352722168, 533.6734642982483, 43.0, 22.0 ],
                    "text": "cycle~"
                }
            },
            {
                "box": {
                    "format": 6,
                    "id": "obj-49",
                    "maxclass": "flonum",
                    "numinlets": 1,
                    "numoutlets": 2,
                    "outlettype": [ "", "bang" ],
                    "parameter_enable": 0,
                    "patching_rect": [ 46.98469352722168, 501.02040338516235, 50.0, 22.0 ]
                }
            },
            {
                "box": {
                    "id": "obj-41",
                    "maxclass": "newobj",
                    "numinlets": 2,
                    "numoutlets": 1,
                    "outlettype": [ "float" ],
                    "patching_rect": [ 46.98469352722168, 466.32652616500854, 60.0, 22.0 ],
                    "text": "* 3.14159"
                }
            },
            {
                "box": {
                    "format": 6,
                    "id": "obj-40",
                    "maxclass": "flonum",
                    "numinlets": 1,
                    "numoutlets": 2,
                    "outlettype": [ "", "bang" ],
                    "parameter_enable": 0,
                    "patching_rect": [ 180.6122431755066, 587.7550964355469, 50.0, 22.0 ]
                }
            },
            {
                "box": {
                    "id": "obj-25",
                    "maxclass": "newobj",
                    "numinlets": 3,
                    "numoutlets": 2,
                    "outlettype": [ "", "bang" ],
                    "patching_rect": [ 180.6122431755066, 545.9183621406555, 40.0, 22.0 ],
                    "text": "line"
                }
            },
            {
                "box": {
                    "format": 6,
                    "id": "obj-19",
                    "maxclass": "flonum",
                    "numinlets": 1,
                    "numoutlets": 2,
                    "outlettype": [ "", "bang" ],
                    "parameter_enable": 0,
                    "patching_rect": [ 36.73469352722168, 425.5102000236511, 50.0, 22.0 ]
                }
            },
            {
                "box": {
                    "addpoints": [ 0.0, 0.0, 0, 373.5996479683734, 0.9812244923909506, 0, 979.3312965555394, 0.8043537457784017, 0, 1487.3642921447754, 0.9540136082967122, 0, 2014.937018333597, 0.7771428616841635, 0, 2483.8905527236616, 0.9404081662495931, 0, 2835.6057035162094, 0.7907483037312826, 0, 2991.9235483128973, 0.9131972821553548, 0, 3128.7016625099996, 0.8179591878255208, 0, 3226.4003155079295, 0.9131972821553548, 0, 3600.0, 0.0, 0 ],
                    "classic_curve": 1,
                    "domain": 3600.0,
                    "id": "obj-12",
                    "maxclass": "function",
                    "numinlets": 1,
                    "numoutlets": 4,
                    "outlettype": [ "float", "", "", "bang" ],
                    "parameter_enable": 0,
                    "patching_rect": [ 120.4081621170044, 425.5102000236511, 200.0, 100.0 ]
                }
            },
            {
                "box": {
                    "id": "obj-57",
                    "linecount": 3,
                    "maxclass": "comment",
                    "numinlets": 1,
                    "numoutlets": 0,
                    "patching_rect": [ 644.3037890195847, 941.7721395492554, 223.48994261026382, 47.0 ],
                    "text": "these two <out> objects will be used to monitor voice allocation from the outer (parent) patch"
                }
            },
            {
                "box": {
                    "id": "obj-55",
                    "maxclass": "newobj",
                    "numinlets": 1,
                    "numoutlets": 0,
                    "patching_rect": [ 584.8101189136505, 941.7721395492554, 35.0, 22.0 ],
                    "text": "out 2"
                }
            },
            {
                "box": {
                    "id": "obj-54",
                    "maxclass": "newobj",
                    "numinlets": 1,
                    "numoutlets": 0,
                    "patching_rect": [ 532.9113854169846, 941.7721395492554, 35.0, 22.0 ],
                    "text": "out 1"
                }
            },
            {
                "box": {
                    "id": "obj-53",
                    "maxclass": "newobj",
                    "numinlets": 0,
                    "numoutlets": 1,
                    "outlettype": [ "" ],
                    "patching_rect": [ 998.7341641187668, 829.1139131784439, 58.0, 22.0 ],
                    "text": "r mute.all"
                }
            },
            {
                "box": {
                    "id": "obj-52",
                    "linecount": 2,
                    "maxclass": "comment",
                    "numinlets": 1,
                    "numoutlets": 0,
                    "patching_rect": [ 781.012647986412, 858.2278368473053, 176.5, 33.0 ],
                    "text": "mute 1 = \"mute\" this voice\n0 = set the busy state to \"free\""
                }
            },
            {
                "box": {
                    "id": "obj-50",
                    "maxclass": "message",
                    "numinlets": 2,
                    "numoutlets": 1,
                    "outlettype": [ "" ],
                    "patching_rect": [ 716.4556868076324, 864.5569506883621, 59.0, 22.0 ],
                    "text": "mute 1, 0"
                }
            },
            {
                "box": {
                    "id": "obj-48",
                    "linecount": 2,
                    "maxclass": "comment",
                    "numinlets": 1,
                    "numoutlets": 0,
                    "patching_rect": [ 1026.5822650194168, 715.1898640394211, 177.5, 33.0 ],
                    "text": "mute 0 = \"unmute\" this voice\n1 = set the busy state to \"busy\""
                }
            },
            {
                "box": {
                    "id": "obj-46",
                    "maxclass": "message",
                    "numinlets": 2,
                    "numoutlets": 1,
                    "outlettype": [ "" ],
                    "patching_rect": [ 950.6328989267349, 720.2531551122665, 59.0, 22.0 ],
                    "text": "mute 0, 1"
                }
            },
            {
                "box": {
                    "id": "obj-27",
                    "maxclass": "newobj",
                    "numinlets": 1,
                    "numoutlets": 3,
                    "outlettype": [ "int", "int", "int" ],
                    "patching_rect": [ 950.6328989267349, 903.7974565029144, 56.0, 22.0 ],
                    "text": "thispoly~"
                }
            },
            {
                "box": {
                    "id": "obj-23",
                    "maxclass": "newobj",
                    "numinlets": 1,
                    "numoutlets": 0,
                    "patching_rect": [ 453.1645510196686, 941.7721395492554, 42.0, 22.0 ],
                    "text": "out~ 1"
                }
            },
            {
                "box": {
                    "id": "obj-18",
                    "maxclass": "newobj",
                    "numinlets": 1,
                    "numoutlets": 1,
                    "outlettype": [ "" ],
                    "patching_rect": [ 295.45454263687134, 102.27272629737854, 28.0, 22.0 ],
                    "text": "in 1"
                }
            },
            {
                "box": {
                    "fontface": 1,
                    "id": "obj-16",
                    "maxclass": "comment",
                    "numinlets": 1,
                    "numoutlets": 0,
                    "patching_rect": [ 190.90908908843994, 177.2727255821228, 105.0, 20.0 ],
                    "text": "<bach.playkeys>",
                    "textcolor": [ 0.870588, 0.415686, 0.062745, 1.0 ]
                }
            },
            {
                "box": {
                    "fontface": 1,
                    "id": "obj-15",
                    "maxclass": "comment",
                    "numinlets": 1,
                    "numoutlets": 0,
                    "patching_rect": [ 503.79746174812317, 883.5442922115326, 199.14530116319656, 20.0 ],
                    "text": "<out~> poly~ equivalent of outlet",
                    "textcolor": [ 0.870588, 0.415686, 0.062745, 1.0 ]
                }
            },
            {
                "box": {
                    "fontface": 1,
                    "id": "obj-13",
                    "maxclass": "comment",
                    "numinlets": 1,
                    "numoutlets": 0,
                    "patching_rect": [ 327.2727241516113, 86.36363554000854, 222.22222447395325, 20.0 ],
                    "text": "<in> poly~ uses its own kind of inlets",
                    "textcolor": [ 0.870588, 0.415686, 0.062745, 1.0 ]
                }
            },
            {
                "box": {
                    "fontface": 1,
                    "id": "obj-9",
                    "maxclass": "comment",
                    "numinlets": 1,
                    "numoutlets": 0,
                    "patching_rect": [ 234.0909068584442, 331.81817865371704, 61.0, 20.0 ],
                    "text": "<trigger>",
                    "textcolor": [ 0.870588, 0.415686, 0.062745, 1.0 ]
                }
            },
            {
                "box": {
                    "fontface": 3,
                    "fontsize": 20.0,
                    "id": "obj-6",
                    "linecount": 3,
                    "maxclass": "comment",
                    "numinlets": 1,
                    "numoutlets": 0,
                    "patching_rect": [ 165.90908932685852, 93.18181729316711, 127.0, 74.0 ],
                    "text": "FM\nSynth\nEngine",
                    "textjustification": 2
                }
            },
            {
                "box": {
                    "fontface": 2,
                    "id": "obj-1",
                    "maxclass": "comment",
                    "numinlets": 1,
                    "numoutlets": 0,
                    "patching_rect": [ 327.2727241516113, 102.27272629737854, 217.0, 20.0 ],
                    "text": "<= Playout (7th outlet) from <bach.roll>",
                    "textcolor": [ 0.011765, 0.396078, 0.752941, 1.0 ]
                }
            },
            {
                "box": {
                    "fontface": 2,
                    "id": "obj-45",
                    "maxclass": "comment",
                    "numinlets": 1,
                    "numoutlets": 0,
                    "patching_rect": [ 486.3636317253113, 249.9999976158142, 24.0, 20.0 ],
                    "text": "ms",
                    "textcolor": [ 0.011765, 0.396078, 0.752941, 1.0 ]
                }
            },
            {
                "box": {
                    "color": [ 0.784314, 0.145098, 0.023529, 1.0 ],
                    "id": "obj-44",
                    "maxclass": "newobj",
                    "numinlets": 2,
                    "numoutlets": 2,
                    "outlettype": [ "signal", "bang" ],
                    "patching_rect": [ 639.2404979467392, 829.1139131784439, 97.0, 22.0 ],
                    "text": "line~"
                }
            },
            {
                "box": {
                    "id": "obj-43",
                    "maxclass": "message",
                    "numinlets": 2,
                    "numoutlets": 1,
                    "outlettype": [ "" ],
                    "patching_rect": [ 420.45454144477844, 297.7272698879242, 81.0, 22.0 ],
                    "text": "setdomain $1"
                }
            },
            {
                "box": {
                    "id": "obj-42",
                    "maxclass": "message",
                    "numinlets": 2,
                    "numoutlets": 1,
                    "outlettype": [ "" ],
                    "patching_rect": [ 547.7272675037384, 297.7272698879242, 82.0, 22.0 ],
                    "text": "setrange 0 $1"
                }
            },
            {
                "box": {
                    "id": "obj-39",
                    "maxclass": "newobj",
                    "numinlets": 2,
                    "numoutlets": 1,
                    "outlettype": [ "float" ],
                    "patching_rect": [ 547.7272675037384, 268.18181562423706, 39.0, 22.0 ],
                    "text": "/ 127."
                }
            },
            {
                "box": {
                    "fontface": 1,
                    "id": "obj-38",
                    "maxclass": "comment",
                    "numinlets": 1,
                    "numoutlets": 0,
                    "patching_rect": [ 781.012647986412, 720.2531551122665, 70.0, 20.0 ],
                    "text": "<function>",
                    "textcolor": [ 0.870588, 0.415686, 0.062745, 1.0 ]
                }
            },
            {
                "box": {
                    "id": "obj-37",
                    "maxclass": "newobj",
                    "numinlets": 1,
                    "numoutlets": 4,
                    "outlettype": [ "bang", "bang", "bang", "float" ],
                    "patching_rect": [ 295.45454263687134, 331.81817865371704, 50.5, 22.0 ],
                    "text": "t b b b f"
                }
            },
            {
                "box": {
                    "addpoints": [ 0.0, 0.0, 0, 574.4579895473917, 0.3937026555830954, 0, 986.1577927387513, 0.20472512693709605, 0, 2441.458613091082, 0.19947576470794015, 0, 3599.954660871558, 0.0, 0 ],
                    "classic_curve": 1,
                    "domain": 3600.0,
                    "id": "obj-36",
                    "maxclass": "function",
                    "numinlets": 1,
                    "numoutlets": 4,
                    "outlettype": [ "float", "", "", "bang" ],
                    "parameter_enable": 0,
                    "patching_rect": [ 578.4810050725937, 720.2531551122665, 200.0, 100.0 ],
                    "range": [ 0.0, 0.3937007784843445 ]
                }
            },
            {
                "box": {
                    "color": [ 0.784314, 0.145098, 0.023529, 1.0 ],
                    "id": "obj-35",
                    "maxclass": "newobj",
                    "numinlets": 2,
                    "numoutlets": 1,
                    "outlettype": [ "signal" ],
                    "patching_rect": [ 453.1645510196686, 855.6961913108826, 204.83333333333337, 22.0 ],
                    "text": "*~"
                }
            },
            {
                "box": {
                    "fontface": 1,
                    "id": "obj-14",
                    "maxclass": "comment",
                    "numinlets": 1,
                    "numoutlets": 0,
                    "patching_rect": [ 265.9090883731842, 238.63636136054993, 27.0, 20.0 ],
                    "text": "<f>",
                    "textcolor": [ 0.870588, 0.415686, 0.062745, 1.0 ]
                }
            },
            {
                "box": {
                    "fontface": 2,
                    "id": "obj-11",
                    "maxclass": "comment",
                    "numinlets": 1,
                    "numoutlets": 0,
                    "patching_rect": [ 613.6363577842712, 249.9999976158142, 47.0, 20.0 ],
                    "text": "volume",
                    "textcolor": [ 0.011765, 0.396078, 0.752941, 1.0 ]
                }
            },
            {
                "box": {
                    "fontface": 2,
                    "id": "obj-10",
                    "maxclass": "comment",
                    "numinlets": 1,
                    "numoutlets": 0,
                    "patching_rect": [ 363.63636016845703, 249.9999976158142, 34.0, 20.0 ],
                    "text": "pitch",
                    "textcolor": [ 0.011765, 0.396078, 0.752941, 1.0 ]
                }
            },
            {
                "box": {
                    "fontface": 2,
                    "id": "obj-8",
                    "maxclass": "comment",
                    "numinlets": 1,
                    "numoutlets": 0,
                    "patching_rect": [ 131.81818056106567, 277.2727246284485, 164.0, 20.0 ],
                    "text": "convert from midicents to Hz.",
                    "textcolor": [ 0.011765, 0.396078, 0.752941, 1.0 ]
                }
            },
            {
                "box": {
                    "fontface": 2,
                    "id": "obj-7",
                    "maxclass": "comment",
                    "numinlets": 1,
                    "numoutlets": 0,
                    "patching_rect": [ 347.72726941108704, 304.54545164108276, 37.0, 20.0 ],
                    "text": "<Hz>",
                    "textcolor": [ 0.011765, 0.396078, 0.752941, 1.0 ]
                }
            },
            {
                "box": {
                    "format": 6,
                    "id": "obj-33",
                    "maxclass": "flonum",
                    "numinlets": 1,
                    "numoutlets": 2,
                    "outlettype": [ "", "bang" ],
                    "parameter_enable": 0,
                    "patching_rect": [ 295.45454263687134, 304.54545164108276, 50.0, 22.0 ]
                }
            },
            {
                "box": {
                    "id": "obj-32",
                    "maxclass": "newobj",
                    "numinlets": 2,
                    "numoutlets": 1,
                    "outlettype": [ "" ],
                    "patching_rect": [ 295.45454263687134, 274.99999737739563, 103.0, 22.0 ],
                    "text": "bach.mc2f @out t"
                }
            },
            {
                "box": {
                    "fontface": 2,
                    "id": "obj-31",
                    "maxclass": "comment",
                    "numinlets": 1,
                    "numoutlets": 0,
                    "patching_rect": [ 597.7272670269012, 236.36363410949707, 63.0, 20.0 ],
                    "text": "<velocity>",
                    "textcolor": [ 0.011765, 0.396078, 0.752941, 1.0 ]
                }
            },
            {
                "box": {
                    "fontface": 2,
                    "id": "obj-30",
                    "maxclass": "comment",
                    "numinlets": 1,
                    "numoutlets": 0,
                    "patching_rect": [ 472.72726821899414, 236.36363410949707, 66.0, 20.0 ],
                    "text": "<duration>",
                    "textcolor": [ 0.011765, 0.396078, 0.752941, 1.0 ]
                }
            },
            {
                "box": {
                    "fontface": 2,
                    "id": "obj-29",
                    "maxclass": "comment",
                    "numinlets": 1,
                    "numoutlets": 0,
                    "patching_rect": [ 347.72726941108704, 236.36363410949707, 73.0, 20.0 ],
                    "text": "<midicents>",
                    "textcolor": [ 0.011765, 0.396078, 0.752941, 1.0 ]
                }
            },
            {
                "box": {
                    "format": 6,
                    "id": "obj-28",
                    "maxclass": "flonum",
                    "numinlets": 1,
                    "numoutlets": 2,
                    "outlettype": [ "", "bang" ],
                    "parameter_enable": 0,
                    "patching_rect": [ 547.7272675037384, 236.36363410949707, 50.0, 22.0 ]
                }
            },
            {
                "box": {
                    "format": 6,
                    "id": "obj-26",
                    "maxclass": "flonum",
                    "numinlets": 1,
                    "numoutlets": 2,
                    "outlettype": [ "", "bang" ],
                    "parameter_enable": 0,
                    "patching_rect": [ 420.45454144477844, 236.36363410949707, 50.0, 22.0 ]
                }
            },
            {
                "box": {
                    "format": 6,
                    "id": "obj-24",
                    "maxclass": "flonum",
                    "numinlets": 1,
                    "numoutlets": 2,
                    "outlettype": [ "", "bang" ],
                    "parameter_enable": 0,
                    "patching_rect": [ 295.45454263687134, 236.36363410949707, 50.0, 22.0 ]
                }
            },
            {
                "box": {
                    "id": "obj-21",
                    "maxclass": "newobj",
                    "numinlets": 1,
                    "numoutlets": 3,
                    "outlettype": [ "", "", "" ],
                    "patching_rect": [ 295.45454263687134, 177.2727255821228, 270.0, 22.0 ],
                    "saved_object_attributes": {
                        "versionnumber": 80100
                    },
                    "text": "bach.playkeys cents duration velocity @out t"
                }
            }
        ],
        "lines": [
            {
                "patchline": {
                    "destination": [ "obj-25", 0 ],
                    "source": [ "obj-12", 1 ]
                }
            },
            {
                "patchline": {
                    "destination": [ "obj-21", 0 ],
                    "source": [ "obj-18", 0 ]
                }
            },
            {
                "patchline": {
                    "destination": [ "obj-41", 0 ],
                    "order": 0,
                    "source": [ "obj-19", 0 ]
                }
            },
            {
                "patchline": {
                    "destination": [ "obj-64", 0 ],
                    "order": 1,
                    "source": [ "obj-19", 0 ]
                }
            },
            {
                "patchline": {
                    "destination": [ "obj-24", 0 ],
                    "source": [ "obj-21", 0 ]
                }
            },
            {
                "patchline": {
                    "destination": [ "obj-26", 0 ],
                    "source": [ "obj-21", 1 ]
                }
            },
            {
                "patchline": {
                    "destination": [ "obj-28", 0 ],
                    "source": [ "obj-21", 2 ]
                }
            },
            {
                "patchline": {
                    "destination": [ "obj-32", 0 ],
                    "source": [ "obj-24", 0 ]
                }
            },
            {
                "patchline": {
                    "destination": [ "obj-40", 0 ],
                    "source": [ "obj-25", 0 ]
                }
            },
            {
                "patchline": {
                    "destination": [ "obj-43", 0 ],
                    "source": [ "obj-26", 0 ]
                }
            },
            {
                "patchline": {
                    "destination": [ "obj-39", 0 ],
                    "source": [ "obj-28", 0 ]
                }
            },
            {
                "patchline": {
                    "destination": [ "obj-33", 0 ],
                    "source": [ "obj-32", 0 ]
                }
            },
            {
                "patchline": {
                    "destination": [ "obj-37", 0 ],
                    "source": [ "obj-33", 0 ]
                }
            },
            {
                "patchline": {
                    "destination": [ "obj-23", 0 ],
                    "source": [ "obj-35", 0 ]
                }
            },
            {
                "patchline": {
                    "destination": [ "obj-44", 0 ],
                    "source": [ "obj-36", 1 ]
                }
            },
            {
                "patchline": {
                    "destination": [ "obj-12", 0 ],
                    "source": [ "obj-37", 0 ]
                }
            },
            {
                "patchline": {
                    "destination": [ "obj-19", 0 ],
                    "source": [ "obj-37", 3 ]
                }
            },
            {
                "patchline": {
                    "destination": [ "obj-36", 0 ],
                    "source": [ "obj-37", 1 ]
                }
            },
            {
                "patchline": {
                    "color": [ 0.0, 0.6065627336502075, 0.0, 1.0 ],
                    "destination": [ "obj-46", 0 ],
                    "source": [ "obj-37", 2 ]
                }
            },
            {
                "patchline": {
                    "destination": [ "obj-42", 0 ],
                    "source": [ "obj-39", 0 ]
                }
            },
            {
                "patchline": {
                    "destination": [ "obj-63", 1 ],
                    "source": [ "obj-40", 0 ]
                }
            },
            {
                "patchline": {
                    "destination": [ "obj-49", 0 ],
                    "source": [ "obj-41", 0 ]
                }
            },
            {
                "patchline": {
                    "destination": [ "obj-36", 0 ],
                    "source": [ "obj-42", 0 ]
                }
            },
            {
                "patchline": {
                    "destination": [ "obj-12", 0 ],
                    "order": 1,
                    "source": [ "obj-43", 0 ]
                }
            },
            {
                "patchline": {
                    "destination": [ "obj-36", 0 ],
                    "order": 0,
                    "source": [ "obj-43", 0 ]
                }
            },
            {
                "patchline": {
                    "destination": [ "obj-35", 1 ],
                    "source": [ "obj-44", 0 ]
                }
            },
            {
                "patchline": {
                    "destination": [ "obj-50", 0 ],
                    "source": [ "obj-44", 1 ]
                }
            },
            {
                "patchline": {
                    "destination": [ "obj-27", 0 ],
                    "source": [ "obj-46", 0 ]
                }
            },
            {
                "patchline": {
                    "destination": [ "obj-60", 0 ],
                    "source": [ "obj-49", 0 ]
                }
            },
            {
                "patchline": {
                    "destination": [ "obj-27", 0 ],
                    "source": [ "obj-50", 0 ]
                }
            },
            {
                "patchline": {
                    "destination": [ "obj-27", 0 ],
                    "source": [ "obj-53", 0 ]
                }
            },
            {
                "patchline": {
                    "destination": [ "obj-63", 0 ],
                    "source": [ "obj-60", 0 ]
                }
            },
            {
                "patchline": {
                    "destination": [ "obj-64", 1 ],
                    "source": [ "obj-63", 0 ]
                }
            },
            {
                "patchline": {
                    "destination": [ "obj-65", 0 ],
                    "source": [ "obj-64", 0 ]
                }
            },
            {
                "patchline": {
                    "destination": [ "obj-66", 0 ],
                    "source": [ "obj-65", 0 ]
                }
            },
            {
                "patchline": {
                    "destination": [ "obj-35", 0 ],
                    "source": [ "obj-66", 0 ]
                }
            },
            {
                "patchline": {
                    "destination": [ "obj-12", 0 ],
                    "source": [ "obj-68", 0 ]
                }
            }
        ],
        "styles": [
            {
                "name": "ksliderWhite",
                "default": {
                    "color": [ 1.0, 1.0, 1.0, 1.0 ]
                },
                "parentstyle": "",
                "multi": 0
            },
            {
                "name": "messageBlue",
                "default": {
                    "bgfillcolor": {
                        "angle": 270.0,
                        "autogradient": 0,
                        "color": [ 0.290196, 0.309804, 0.301961, 1.0 ],
                        "color1": [ 0.317647, 0.654902, 0.976471, 1.0 ],
                        "color2": [ 0.290196, 0.309804, 0.301961, 1.0 ],
                        "proportion": 0.660494,
                        "type": "gradient"
                    }
                },
                "parentstyle": "",
                "multi": 0
            },
            {
                "name": "newobjBlue-1",
                "default": {
                    "accentcolor": [ 0.317647, 0.654902, 0.976471, 1.0 ]
                },
                "parentstyle": "",
                "multi": 0
            },
            {
                "name": "newobjCyan-1",
                "default": {
                    "accentcolor": [ 0.029546, 0.773327, 0.821113, 1.0 ]
                },
                "parentstyle": "",
                "multi": 0
            },
            {
                "name": "newobjGold-1",
                "default": {
                    "accentcolor": [ 0.764706, 0.592157, 0.101961, 1.0 ]
                },
                "parentstyle": "",
                "multi": 0
            },
            {
                "name": "newobjGreen-1",
                "default": {
                    "accentcolor": [ 0.0, 0.533333, 0.168627, 1.0 ]
                },
                "parentstyle": "",
                "multi": 0
            },
            {
                "name": "newobjRed-1",
                "default": {
                    "accentcolor": [ 0.784314, 0.145098, 0.023529, 1.0 ]
                },
                "parentstyle": "",
                "multi": 0
            },
            {
                "name": "newobjYellow-1",
                "default": {
                    "accentcolor": [ 0.82517, 0.78181, 0.059545, 1.0 ],
                    "fontsize": [ 12.059008 ]
                },
                "parentstyle": "",
                "multi": 0
            }
        ]
    }
}