{
    "patcher": {
        "fileversion": 1,
        "appversion": {
            "major": 9,
            "minor": 1,
            "revision": 2,
            "architecture": "x64",
            "modernui": 1
        },
        "classnamespace": "box",
        "rect": [ 478.0, 148.0, 1000.0, 685.0 ],
        "boxes": [
            {
                "box": {
                    "buffername": "",
                    "id": "obj-3",
                    "maxclass": "waveform~",
                    "numinlets": 5,
                    "numoutlets": 6,
                    "outlettype": [ "float", "float", "float", "float", "list", "" ],
                    "patching_rect": [ 765.0, 110.0, 172.0, 64.0 ]
                }
            },
            {
                "box": {
                    "buffername": "",
                    "id": "obj-2",
                    "maxclass": "waveform~",
                    "numinlets": 5,
                    "numoutlets": 6,
                    "outlettype": [ "float", "float", "float", "float", "list", "" ],
                    "patching_rect": [ 569.0, 110.0, 172.0, 64.0 ]
                }
            },
            {
                "box": {
                    "buffername": "",
                    "id": "obj-1",
                    "maxclass": "waveform~",
                    "numinlets": 5,
                    "numoutlets": 6,
                    "outlettype": [ "float", "float", "float", "float", "list", "" ],
                    "patching_rect": [ 373.0, 110.0, 172.0, 64.0 ]
                }
            },
            {
                "box": {
                    "id": "obj-33",
                    "maxclass": "newobj",
                    "numinlets": 1,
                    "numoutlets": 2,
                    "outlettype": [ "float", "bang" ],
                    "patching_rect": [ 780.0, 387.0, 103.0, 22.0 ],
                    "text": "buffer~ high-freqs"
                }
            },
            {
                "box": {
                    "id": "obj-32",
                    "maxclass": "newobj",
                    "numinlets": 1,
                    "numoutlets": 2,
                    "outlettype": [ "float", "bang" ],
                    "patching_rect": [ 664.0, 387.0, 99.0, 22.0 ],
                    "text": "buffer~ mid-freqs"
                }
            },
            {
                "box": {
                    "id": "obj-31",
                    "maxclass": "newobj",
                    "numinlets": 1,
                    "numoutlets": 2,
                    "outlettype": [ "float", "bang" ],
                    "patching_rect": [ 546.0, 387.0, 98.0, 22.0 ],
                    "text": "buffer~ low-freqs"
                }
            },
            {
                "box": {
                    "id": "obj-30",
                    "maxclass": "newobj",
                    "numinlets": 1,
                    "numoutlets": 3,
                    "outlettype": [ "", "", "" ],
                    "patching_rect": [ 633.0, 323.0, 50.0, 22.0 ],
                    "text": "t l l l"
                }
            },
            {
                "box": {
                    "format": 6,
                    "id": "obj-29",
                    "maxclass": "flonum",
                    "numinlets": 1,
                    "numoutlets": 2,
                    "outlettype": [ "", "bang" ],
                    "parameter_enable": 0,
                    "patching_rect": [ 633.0, 281.0, 50.0, 22.0 ]
                }
            },
            {
                "box": {
                    "id": "obj-27",
                    "maxclass": "newobj",
                    "numinlets": 1,
                    "numoutlets": 1,
                    "outlettype": [ "" ],
                    "patcher": {
                        "fileversion": 1,
                        "appversion": {
                            "major": 9,
                            "minor": 1,
                            "revision": 2,
                            "architecture": "x64",
                            "modernui": 1
                        },
                        "classnamespace": "box",
                        "rect": [ 629.0, 100.0, 1000.0, 685.0 ],
                        "boxes": [
                            {
                                "box": {
                                    "comment": "",
                                    "id": "obj-26",
                                    "index": 1,
                                    "maxclass": "outlet",
                                    "numinlets": 1,
                                    "numoutlets": 0,
                                    "patching_rect": [ 92.0, 375.0, 30.0, 30.0 ]
                                }
                            },
                            {
                                "box": {
                                    "format": 6,
                                    "id": "obj-22",
                                    "maxclass": "flonum",
                                    "numinlets": 1,
                                    "numoutlets": 2,
                                    "outlettype": [ "", "bang" ],
                                    "parameter_enable": 0,
                                    "patching_rect": [ 140.0, 285.0, 50.0, 22.0 ]
                                }
                            },
                            {
                                "box": {
                                    "id": "obj-9",
                                    "maxclass": "comment",
                                    "numinlets": 1,
                                    "numoutlets": 0,
                                    "patching_rect": [ 305.0, 232.0, 362.0, 20.0 ],
                                    "text": "number of samples convert seconds to milliseconds"
                                }
                            },
                            {
                                "box": {
                                    "id": "obj-7",
                                    "maxclass": "newobj",
                                    "numinlets": 1,
                                    "numoutlets": 1,
                                    "outlettype": [ "" ],
                                    "patching_rect": [ 140.0, 231.0, 135.0, 22.0 ],
                                    "text": "expr (8192./$f1) * 1000."
                                }
                            },
                            {
                                "box": {
                                    "id": "obj-6",
                                    "maxclass": "number",
                                    "numinlets": 1,
                                    "numoutlets": 2,
                                    "outlettype": [ "", "bang" ],
                                    "parameter_enable": 0,
                                    "patching_rect": [ 140.0, 187.0, 50.0, 22.0 ]
                                }
                            },
                            {
                                "box": {
                                    "id": "obj-4",
                                    "maxclass": "newobj",
                                    "numinlets": 2,
                                    "numoutlets": 2,
                                    "outlettype": [ "", "int" ],
                                    "patching_rect": [ 92.0, 141.0, 67.0, 22.0 ],
                                    "text": "adstatus sr"
                                }
                            },
                            {
                                "box": {
                                    "comment": "",
                                    "id": "obj-2",
                                    "index": 1,
                                    "maxclass": "inlet",
                                    "numinlets": 0,
                                    "numoutlets": 1,
                                    "outlettype": [ "bang" ],
                                    "patching_rect": [ 92.0, 68.0, 30.0, 30.0 ]
                                }
                            }
                        ],
                        "lines": [
                            {
                                "patchline": {
                                    "destination": [ "obj-4", 0 ],
                                    "source": [ "obj-2", 0 ]
                                }
                            },
                            {
                                "patchline": {
                                    "destination": [ "obj-26", 0 ],
                                    "source": [ "obj-22", 0 ]
                                }
                            },
                            {
                                "patchline": {
                                    "destination": [ "obj-6", 0 ],
                                    "source": [ "obj-4", 1 ]
                                }
                            },
                            {
                                "patchline": {
                                    "destination": [ "obj-7", 0 ],
                                    "source": [ "obj-6", 0 ]
                                }
                            },
                            {
                                "patchline": {
                                    "destination": [ "obj-22", 0 ],
                                    "source": [ "obj-7", 0 ]
                                }
                            }
                        ]
                    },
                    "patching_rect": [ 633.0, 234.0, 137.0, 22.0 ],
                    "text": "p calculate-buffer-length"
                }
            },
            {
                "box": {
                    "id": "obj-26",
                    "maxclass": "newobj",
                    "numinlets": 1,
                    "numoutlets": 0,
                    "patcher": {
                        "fileversion": 1,
                        "appversion": {
                            "major": 9,
                            "minor": 1,
                            "revision": 2,
                            "architecture": "x64",
                            "modernui": 1
                        },
                        "classnamespace": "box",
                        "rect": [ 602.0, 106.0, 1000.0, 685.0 ],
                        "boxes": [
                            {
                                "box": {
                                    "id": "obj-9",
                                    "maxclass": "newobj",
                                    "numinlets": 3,
                                    "numoutlets": 1,
                                    "outlettype": [ "float" ],
                                    "patching_rect": [ 296.0, 322.0, 98.0, 22.0 ],
                                    "text": "peek~ high-freqs"
                                }
                            },
                            {
                                "box": {
                                    "id": "obj-8",
                                    "maxclass": "newobj",
                                    "numinlets": 3,
                                    "numoutlets": 1,
                                    "outlettype": [ "float" ],
                                    "patching_rect": [ 171.0, 322.0, 95.0, 22.0 ],
                                    "text": "peek~ mid-freqs"
                                }
                            },
                            {
                                "box": {
                                    "id": "obj-7",
                                    "maxclass": "newobj",
                                    "numinlets": 3,
                                    "numoutlets": 1,
                                    "outlettype": [ "float" ],
                                    "patching_rect": [ 50.0, 322.0, 94.0, 22.0 ],
                                    "text": "peek~ low-freqs"
                                }
                            },
                            {
                                "box": {
                                    "id": "obj-6",
                                    "maxclass": "newobj",
                                    "numinlets": 2,
                                    "numoutlets": 1,
                                    "outlettype": [ "" ],
                                    "patching_rect": [ 106.0, 253.0, 47.0, 22.0 ],
                                    "text": "pack i f"
                                }
                            },
                            {
                                "box": {
                                    "id": "obj-5",
                                    "maxclass": "newobj",
                                    "numinlets": 6,
                                    "numoutlets": 1,
                                    "outlettype": [ "" ],
                                    "patching_rect": [ 138.0, 213.0, 107.0, 22.0 ],
                                    "text": "scale 0 8191 -1. 1."
                                }
                            },
                            {
                                "box": {
                                    "id": "obj-4",
                                    "maxclass": "newobj",
                                    "numinlets": 2,
                                    "numoutlets": 1,
                                    "outlettype": [ "int" ],
                                    "patching_rect": [ 106.0, 174.0, 29.5, 22.0 ],
                                    "text": "- 1"
                                }
                            },
                            {
                                "box": {
                                    "id": "obj-3",
                                    "maxclass": "newobj",
                                    "numinlets": 2,
                                    "numoutlets": 3,
                                    "outlettype": [ "bang", "bang", "int" ],
                                    "patching_rect": [ 71.0, 138.0, 54.0, 22.0 ],
                                    "text": "uzi 8192"
                                }
                            },
                            {
                                "box": {
                                    "comment": "",
                                    "id": "obj-2",
                                    "index": 1,
                                    "maxclass": "inlet",
                                    "numinlets": 0,
                                    "numoutlets": 1,
                                    "outlettype": [ "bang" ],
                                    "patching_rect": [ 71.0, 86.0, 30.0, 30.0 ]
                                }
                            }
                        ],
                        "lines": [
                            {
                                "patchline": {
                                    "destination": [ "obj-3", 0 ],
                                    "source": [ "obj-2", 0 ]
                                }
                            },
                            {
                                "patchline": {
                                    "destination": [ "obj-4", 0 ],
                                    "source": [ "obj-3", 2 ]
                                }
                            },
                            {
                                "patchline": {
                                    "destination": [ "obj-5", 0 ],
                                    "order": 0,
                                    "source": [ "obj-4", 0 ]
                                }
                            },
                            {
                                "patchline": {
                                    "destination": [ "obj-6", 0 ],
                                    "order": 1,
                                    "source": [ "obj-4", 0 ]
                                }
                            },
                            {
                                "patchline": {
                                    "destination": [ "obj-6", 1 ],
                                    "source": [ "obj-5", 0 ]
                                }
                            },
                            {
                                "patchline": {
                                    "destination": [ "obj-7", 0 ],
                                    "order": 2,
                                    "source": [ "obj-6", 0 ]
                                }
                            },
                            {
                                "patchline": {
                                    "destination": [ "obj-8", 0 ],
                                    "order": 1,
                                    "source": [ "obj-6", 0 ]
                                }
                            },
                            {
                                "patchline": {
                                    "destination": [ "obj-9", 0 ],
                                    "order": 0,
                                    "source": [ "obj-6", 0 ]
                                }
                            }
                        ]
                    },
                    "patching_rect": [ 835.0, 234.0, 177.0, 22.0 ],
                    "text": "p reset-linear-transfer-function"
                }
            },
            {
                "box": {
                    "id": "obj-24",
                    "maxclass": "button",
                    "numinlets": 1,
                    "numoutlets": 1,
                    "outlettype": [ "bang" ],
                    "parameter_enable": 0,
                    "patching_rect": [ 835.0, 184.0, 24.0, 24.0 ]
                }
            },
            {
                "box": {
                    "id": "obj-22",
                    "maxclass": "button",
                    "numinlets": 1,
                    "numoutlets": 1,
                    "outlettype": [ "bang" ],
                    "parameter_enable": 0,
                    "patching_rect": [ 633.0, 178.0, 24.0, 24.0 ]
                }
            },
            {
                "box": {
                    "id": "obj-20",
                    "maxclass": "newobj",
                    "numinlets": 1,
                    "numoutlets": 0,
                    "patching_rect": [ 258.0, 599.0, 68.0, 22.0 ],
                    "text": "send~ out2"
                }
            },
            {
                "box": {
                    "id": "obj-19",
                    "maxclass": "newobj",
                    "numinlets": 1,
                    "numoutlets": 0,
                    "patching_rect": [ 145.0, 599.0, 68.0, 22.0 ],
                    "text": "send~ out1"
                }
            },
            {
                "box": {
                    "id": "obj-18",
                    "maxclass": "newobj",
                    "numinlets": 2,
                    "numoutlets": 1,
                    "outlettype": [ "signal" ],
                    "patching_rect": [ 208.0, 549.0, 54.0, 22.0 ],
                    "text": "*~ 0.707"
                }
            },
            {
                "box": {
                    "id": "obj-17",
                    "lastchannelcount": 0,
                    "maxclass": "live.gain~",
                    "numinlets": 2,
                    "numoutlets": 5,
                    "outlettype": [ "signal", "signal", "", "float", "list" ],
                    "parameter_enable": 1,
                    "patching_rect": [ 373.0, 337.0, 48.0, 136.0 ],
                    "saved_attribute_attributes": {
                        "valueof": {
                            "parameter_longname": "live.gain~[2]",
                            "parameter_mmax": 6.0,
                            "parameter_mmin": -70.0,
                            "parameter_modmode": 3,
                            "parameter_shortname": "live.gain~",
                            "parameter_type": 0,
                            "parameter_unitstyle": 4
                        }
                    },
                    "varname": "live.gain~[2]"
                }
            },
            {
                "box": {
                    "id": "obj-16",
                    "lastchannelcount": 0,
                    "maxclass": "live.gain~",
                    "numinlets": 2,
                    "numoutlets": 5,
                    "outlettype": [ "signal", "signal", "", "float", "list" ],
                    "parameter_enable": 1,
                    "patching_rect": [ 208.0, 337.0, 48.0, 136.0 ],
                    "saved_attribute_attributes": {
                        "valueof": {
                            "parameter_longname": "live.gain~[1]",
                            "parameter_mmax": 6.0,
                            "parameter_mmin": -70.0,
                            "parameter_modmode": 3,
                            "parameter_shortname": "live.gain~",
                            "parameter_type": 0,
                            "parameter_unitstyle": 4
                        }
                    },
                    "varname": "live.gain~[1]"
                }
            },
            {
                "box": {
                    "id": "obj-15",
                    "lastchannelcount": 0,
                    "maxclass": "live.gain~",
                    "numinlets": 2,
                    "numoutlets": 5,
                    "outlettype": [ "signal", "signal", "", "float", "list" ],
                    "parameter_enable": 1,
                    "patching_rect": [ 43.0, 337.0, 48.0, 136.0 ],
                    "saved_attribute_attributes": {
                        "valueof": {
                            "parameter_longname": "live.gain~",
                            "parameter_mmax": 6.0,
                            "parameter_mmin": -70.0,
                            "parameter_modmode": 3,
                            "parameter_shortname": "live.gain~",
                            "parameter_type": 0,
                            "parameter_unitstyle": 4
                        }
                    },
                    "varname": "live.gain~"
                }
            },
            {
                "box": {
                    "id": "obj-14",
                    "maxclass": "newobj",
                    "numinlets": 3,
                    "numoutlets": 1,
                    "outlettype": [ "signal" ],
                    "patching_rect": [ 373.0, 270.0, 148.0, 22.0 ],
                    "text": "lookup~ high-freqs 0 8192"
                }
            },
            {
                "box": {
                    "id": "obj-13",
                    "maxclass": "newobj",
                    "numinlets": 3,
                    "numoutlets": 1,
                    "outlettype": [ "signal" ],
                    "patching_rect": [ 208.0, 270.0, 144.0, 22.0 ],
                    "text": "lookup~ mid-freqs 0 8192"
                }
            },
            {
                "box": {
                    "id": "obj-12",
                    "maxclass": "newobj",
                    "numinlets": 3,
                    "numoutlets": 1,
                    "outlettype": [ "signal" ],
                    "patching_rect": [ 43.0, 270.0, 143.0, 22.0 ],
                    "text": "lookup~ low-freqs 0 8192"
                }
            },
            {
                "box": {
                    "id": "obj-11",
                    "maxclass": "newobj",
                    "numinlets": 3,
                    "numoutlets": 4,
                    "outlettype": [ "signal", "signal", "signal", "signal" ],
                    "patching_rect": [ 43.0, 106.0, 74.0, 22.0 ],
                    "text": "svf~ 500 0.5"
                }
            },
            {
                "box": {
                    "id": "obj-10",
                    "maxclass": "newobj",
                    "numinlets": 1,
                    "numoutlets": 1,
                    "outlettype": [ "signal" ],
                    "patching_rect": [ 43.0, 56.0, 74.0, 22.0 ],
                    "text": "receive~ in1"
                }
            },
            {
                "box": {
                    "id": "obj-9",
                    "maxclass": "message",
                    "numinlets": 2,
                    "numoutlets": 1,
                    "outlettype": [ "" ],
                    "patching_rect": [ 765.0, 51.0, 147.0, 22.0 ],
                    "text": "set high-freqs, mode draw"
                }
            },
            {
                "box": {
                    "id": "obj-8",
                    "maxclass": "message",
                    "numinlets": 2,
                    "numoutlets": 1,
                    "outlettype": [ "" ],
                    "patching_rect": [ 569.0, 51.0, 144.0, 22.0 ],
                    "text": "set mid-freqs, mode draw"
                }
            },
            {
                "box": {
                    "id": "obj-7",
                    "maxclass": "message",
                    "numinlets": 2,
                    "numoutlets": 1,
                    "outlettype": [ "" ],
                    "patching_rect": [ 373.0, 51.0, 143.0, 22.0 ],
                    "text": "set low-freqs, mode draw"
                }
            }
        ],
        "lines": [
            {
                "patchline": {
                    "destination": [ "obj-12", 0 ],
                    "source": [ "obj-11", 0 ]
                }
            },
            {
                "patchline": {
                    "destination": [ "obj-13", 0 ],
                    "source": [ "obj-11", 2 ]
                }
            },
            {
                "patchline": {
                    "destination": [ "obj-14", 0 ],
                    "source": [ "obj-11", 1 ]
                }
            },
            {
                "patchline": {
                    "destination": [ "obj-15", 0 ],
                    "source": [ "obj-12", 0 ]
                }
            },
            {
                "patchline": {
                    "destination": [ "obj-16", 0 ],
                    "source": [ "obj-13", 0 ]
                }
            },
            {
                "patchline": {
                    "destination": [ "obj-17", 0 ],
                    "source": [ "obj-14", 0 ]
                }
            },
            {
                "patchline": {
                    "destination": [ "obj-18", 0 ],
                    "source": [ "obj-15", 0 ]
                }
            },
            {
                "patchline": {
                    "destination": [ "obj-18", 0 ],
                    "source": [ "obj-16", 0 ]
                }
            },
            {
                "patchline": {
                    "destination": [ "obj-18", 0 ],
                    "source": [ "obj-17", 0 ]
                }
            },
            {
                "patchline": {
                    "destination": [ "obj-19", 0 ],
                    "order": 1,
                    "source": [ "obj-18", 0 ]
                }
            },
            {
                "patchline": {
                    "destination": [ "obj-20", 0 ],
                    "order": 0,
                    "source": [ "obj-18", 0 ]
                }
            },
            {
                "patchline": {
                    "destination": [ "obj-27", 0 ],
                    "source": [ "obj-22", 0 ]
                }
            },
            {
                "patchline": {
                    "destination": [ "obj-26", 0 ],
                    "source": [ "obj-24", 0 ]
                }
            },
            {
                "patchline": {
                    "destination": [ "obj-29", 0 ],
                    "source": [ "obj-27", 0 ]
                }
            },
            {
                "patchline": {
                    "destination": [ "obj-30", 0 ],
                    "source": [ "obj-29", 0 ]
                }
            },
            {
                "patchline": {
                    "destination": [ "obj-31", 0 ],
                    "source": [ "obj-30", 0 ]
                }
            },
            {
                "patchline": {
                    "destination": [ "obj-32", 0 ],
                    "source": [ "obj-30", 1 ]
                }
            },
            {
                "patchline": {
                    "destination": [ "obj-33", 0 ],
                    "source": [ "obj-30", 2 ]
                }
            },
            {
                "patchline": {
                    "destination": [ "obj-1", 0 ],
                    "source": [ "obj-7", 0 ]
                }
            },
            {
                "patchline": {
                    "destination": [ "obj-2", 0 ],
                    "source": [ "obj-8", 0 ]
                }
            },
            {
                "patchline": {
                    "destination": [ "obj-3", 0 ],
                    "source": [ "obj-9", 0 ]
                }
            }
        ],
        "parameters": {
            "obj-15": [ "live.gain~", "live.gain~", 0 ],
            "obj-16": [ "live.gain~[1]", "live.gain~", 0 ],
            "obj-17": [ "live.gain~[2]", "live.gain~", 0 ],
            "inherited_shortname": 1
        },
        "autosave": 0
    }
}