{
    "patcher": {
        "fileversion": 1,
        "appversion": {
            "major": 9,
            "minor": 1,
            "revision": 2,
            "architecture": "x64",
            "modernui": 1
        },
        "classnamespace": "box",
        "rect": [ 134.0, 172.0, 904.0, 515.0 ],
        "boxes": [
            {
                "box": {
                    "id": "obj-57",
                    "linecount": 3,
                    "maxclass": "comment",
                    "numinlets": 1,
                    "numoutlets": 0,
                    "patching_rect": [ 381.8792112469673, 522.8188146948814, 223.48994261026382, 47.0 ],
                    "text": "these two <out> objects will be used to monitor voice allocation from the outer (parent) patch"
                }
            },
            {
                "box": {
                    "id": "obj-55",
                    "maxclass": "newobj",
                    "numinlets": 1,
                    "numoutlets": 0,
                    "patching_rect": [ 324.1610879302025, 522.8188146948814, 35.0, 22.0 ],
                    "saved_object_attributes": {
                        "attr_comment": "",
                        "c": ""
                    },
                    "text": "out 2"
                }
            },
            {
                "box": {
                    "id": "obj-54",
                    "maxclass": "newobj",
                    "numinlets": 1,
                    "numoutlets": 0,
                    "patching_rect": [ 271.1409513950348, 522.8188146948814, 35.0, 22.0 ],
                    "saved_object_attributes": {
                        "attr_comment": "",
                        "c": ""
                    },
                    "text": "out 1"
                }
            },
            {
                "box": {
                    "id": "obj-53",
                    "maxclass": "newobj",
                    "numinlets": 0,
                    "numoutlets": 1,
                    "outlettype": [ "" ],
                    "patching_rect": [ 738.0, 409.0, 58.0, 22.0 ],
                    "text": "r mute.all"
                }
            },
            {
                "box": {
                    "id": "obj-52",
                    "linecount": 2,
                    "maxclass": "comment",
                    "numinlets": 1,
                    "numoutlets": 0,
                    "patching_rect": [ 519.452475247525, 439.0, 176.5, 33.0 ],
                    "text": "mute 1 = \"mute\" this voice\n0 = set the busy state to \"free\""
                }
            },
            {
                "box": {
                    "id": "obj-50",
                    "maxclass": "message",
                    "numinlets": 2,
                    "numoutlets": 1,
                    "outlettype": [ "" ],
                    "patching_rect": [ 456.0, 444.5, 59.0, 22.0 ],
                    "text": "mute 1, 0"
                }
            },
            {
                "box": {
                    "id": "obj-48",
                    "linecount": 2,
                    "maxclass": "comment",
                    "numinlets": 1,
                    "numoutlets": 0,
                    "patching_rect": [ 764.0, 295.0, 177.5, 33.0 ],
                    "text": "mute 0 = \"unmute\" this voice\n1 = set the busy state to \"busy\""
                }
            },
            {
                "box": {
                    "id": "obj-46",
                    "maxclass": "message",
                    "numinlets": 2,
                    "numoutlets": 1,
                    "outlettype": [ "" ],
                    "patching_rect": [ 690.0, 299.0, 59.0, 22.0 ],
                    "text": "mute 0, 1"
                }
            },
            {
                "box": {
                    "id": "obj-27",
                    "maxclass": "newobj",
                    "numinlets": 1,
                    "numoutlets": 3,
                    "outlettype": [ "int", "int", "int" ],
                    "patching_rect": [ 690.0, 484.0, 56.0, 22.0 ],
                    "text": "thispoly~"
                }
            },
            {
                "box": {
                    "id": "obj-23",
                    "maxclass": "newobj",
                    "numinlets": 1,
                    "numoutlets": 0,
                    "patching_rect": [ 192.0, 522.8188146948814, 42.0, 22.0 ],
                    "saved_object_attributes": {
                        "attr_comment": "",
                        "c": ""
                    },
                    "text": "out~ 1"
                }
            },
            {
                "box": {
                    "id": "obj-18",
                    "maxclass": "newobj",
                    "numinlets": 1,
                    "numoutlets": 1,
                    "outlettype": [ "" ],
                    "patching_rect": [ 192.0, 22.0, 28.0, 22.0 ],
                    "saved_object_attributes": {
                        "attr_comment": "",
                        "c": ""
                    },
                    "text": "in 1"
                }
            },
            {
                "box": {
                    "bgmode": 0,
                    "border": 0,
                    "clickthrough": 0,
                    "enablehscroll": 0,
                    "enablevscroll": 0,
                    "id": "obj-17",
                    "lockeddragscroll": 0,
                    "lockedsize": 0,
                    "maxclass": "bpatcher",
                    "name": "z.credits.v01.bp.maxpat",
                    "numinlets": 0,
                    "numoutlets": 0,
                    "offset": [ 0.0, 0.0 ],
                    "patching_rect": [ 952.5772662162781, 430.0, 244.0, 75.0 ],
                    "viewvisibility": 1
                }
            },
            {
                "box": {
                    "fontface": 2,
                    "id": "obj-3",
                    "linecount": 4,
                    "maxclass": "comment",
                    "numinlets": 1,
                    "numoutlets": 0,
                    "patching_rect": [ 6.0, 324.0, 193.0, 60.0 ],
                    "text": "Simple cosine wave synth engine. Try replacing this with other waveforms you already know: saw~, tri~, rect~, etc.",
                    "textcolor": [ 0.011765, 0.396078, 0.752941, 1.0 ],
                    "textjustification": 2
                }
            },
            {
                "box": {
                    "fontface": 1,
                    "id": "obj-16",
                    "maxclass": "comment",
                    "numinlets": 1,
                    "numoutlets": 0,
                    "patching_rect": [ 87.5, 98.0, 105.0, 20.0 ],
                    "text": "<bach.playkeys>",
                    "textcolor": [ 0.870588, 0.415686, 0.062745, 1.0 ]
                }
            },
            {
                "box": {
                    "fontface": 1,
                    "id": "obj-15",
                    "maxclass": "comment",
                    "numinlets": 1,
                    "numoutlets": 0,
                    "patching_rect": [ 241.8803443312645, 464.0, 199.14530116319656, 20.0 ],
                    "text": "<out~> poly~ equivalent of outlet",
                    "textcolor": [ 0.870588, 0.415686, 0.062745, 1.0 ]
                }
            },
            {
                "box": {
                    "fontface": 1,
                    "id": "obj-13",
                    "maxclass": "comment",
                    "numinlets": 1,
                    "numoutlets": 0,
                    "patching_rect": [ 223.93162620067596, 6.837606906890869, 222.22222447395325, 20.0 ],
                    "text": "<in> poly~ uses its own kind of inlets",
                    "textcolor": [ 0.870588, 0.415686, 0.062745, 1.0 ]
                }
            },
            {
                "box": {
                    "fontface": 1,
                    "id": "obj-9",
                    "maxclass": "comment",
                    "numinlets": 1,
                    "numoutlets": 0,
                    "patching_rect": [ 130.0, 253.0, 61.0, 20.0 ],
                    "text": "<trigger>",
                    "textcolor": [ 0.870588, 0.415686, 0.062745, 1.0 ]
                }
            },
            {
                "box": {
                    "fontface": 3,
                    "fontsize": 20.0,
                    "id": "obj-6",
                    "linecount": 3,
                    "maxclass": "comment",
                    "numinlets": 1,
                    "numoutlets": 0,
                    "patching_rect": [ 63.0, 13.0, 127.0, 74.0 ],
                    "text": "Polyphonic\nSynth\nEngine",
                    "textjustification": 2
                }
            },
            {
                "box": {
                    "fontface": 2,
                    "id": "obj-20",
                    "maxclass": "comment",
                    "numinlets": 1,
                    "numoutlets": 0,
                    "patching_rect": [ 457.0, 50.0, 297.0, 20.0 ],
                    "text": "We're interested in the note_LLLL, always in this form:",
                    "textcolor": [ 0.011765, 0.396078, 0.752941, 1.0 ]
                }
            },
            {
                "box": {
                    "fontface": 1,
                    "fontname": "Courier New",
                    "fontsize": 9.0,
                    "id": "obj-19",
                    "maxclass": "comment",
                    "numinlets": 1,
                    "numoutlets": 0,
                    "patching_rect": [ 476.95247524752494, 72.0, 268.0, 17.0 ],
                    "text": "[pitch-in-midicents duration velocity note-flag]",
                    "textcolor": [ 0.466667, 0.254902, 0.607843, 1.0 ]
                }
            },
            {
                "box": {
                    "fontface": 1,
                    "fontname": "Courier New",
                    "fontsize": 9.0,
                    "id": "obj-25",
                    "maxclass": "comment",
                    "numinlets": 1,
                    "numoutlets": 0,
                    "patching_rect": [ 476.95247524752494, 35.0, 425.0, 17.0 ],
                    "text": "note <voice_number> <MIDI_channel> [<chord_onset> [<NOTE_LLLL>] <chord_flag>]",
                    "textcolor": [ 0.466667, 0.254902, 0.607843, 1.0 ]
                }
            },
            {
                "box": {
                    "fontface": 2,
                    "id": "obj-12",
                    "maxclass": "comment",
                    "numinlets": 1,
                    "numoutlets": 0,
                    "patching_rect": [ 457.0, 13.0, 317.0, 20.0 ],
                    "text": "Playback syntax from bach.roll is always a list in this form:",
                    "textcolor": [ 0.011765, 0.396078, 0.752941, 1.0 ]
                }
            },
            {
                "box": {
                    "fontface": 2,
                    "id": "obj-5",
                    "maxclass": "comment",
                    "numinlets": 1,
                    "numoutlets": 0,
                    "patching_rect": [ 241.8803443312645, 485.0, 272.0, 20.0 ],
                    "text": "<= to volume controls and dac~ outputs from Max",
                    "textcolor": [ 0.011765, 0.396078, 0.752941, 1.0 ]
                }
            },
            {
                "box": {
                    "fontface": 1,
                    "id": "obj-4",
                    "maxclass": "comment",
                    "numinlets": 1,
                    "numoutlets": 0,
                    "patching_rect": [ 130.0, 302.0, 60.0, 20.0 ],
                    "text": "<cycle~>",
                    "textcolor": [ 0.870588, 0.415686, 0.062745, 1.0 ]
                }
            },
            {
                "box": {
                    "fontface": 2,
                    "id": "obj-1",
                    "maxclass": "comment",
                    "numinlets": 1,
                    "numoutlets": 0,
                    "patching_rect": [ 223.93162620067596, 23.0, 217.0, 20.0 ],
                    "text": "<= Playout (7th outlet) from <bach.roll>",
                    "textcolor": [ 0.011765, 0.396078, 0.752941, 1.0 ]
                }
            },
            {
                "box": {
                    "fontface": 2,
                    "id": "obj-45",
                    "maxclass": "comment",
                    "numinlets": 1,
                    "numoutlets": 0,
                    "patching_rect": [ 382.83333333333337, 171.0, 24.0, 20.0 ],
                    "text": "ms",
                    "textcolor": [ 0.011765, 0.396078, 0.752941, 1.0 ]
                }
            },
            {
                "box": {
                    "color": [ 0.784314, 0.145098, 0.023529, 1.0 ],
                    "id": "obj-44",
                    "maxclass": "newobj",
                    "numinlets": 2,
                    "numoutlets": 2,
                    "outlettype": [ "signal", "bang" ],
                    "patching_rect": [ 378.0, 409.0, 97.0, 22.0 ],
                    "text": "line~"
                }
            },
            {
                "box": {
                    "id": "obj-43",
                    "maxclass": "message",
                    "numinlets": 2,
                    "numoutlets": 1,
                    "outlettype": [ "" ],
                    "patching_rect": [ 317.5, 217.0, 81.0, 22.0 ],
                    "text": "setdomain $1"
                }
            },
            {
                "box": {
                    "id": "obj-42",
                    "maxclass": "message",
                    "numinlets": 2,
                    "numoutlets": 1,
                    "outlettype": [ "" ],
                    "patching_rect": [ 443.0, 217.0, 82.0, 22.0 ],
                    "text": "setrange 0 $1"
                }
            },
            {
                "box": {
                    "fontface": 2,
                    "id": "obj-40",
                    "linecount": 3,
                    "maxclass": "comment",
                    "numinlets": 1,
                    "numoutlets": 0,
                    "patching_rect": [ 519.452475247525, 315.0, 125.0, 47.0 ],
                    "text": "Our familiar ADSR (attack sustain decay release) curve.",
                    "textcolor": [ 0.011765, 0.396078, 0.752941, 1.0 ]
                }
            },
            {
                "box": {
                    "id": "obj-39",
                    "maxclass": "newobj",
                    "numinlets": 2,
                    "numoutlets": 1,
                    "outlettype": [ "float" ],
                    "patching_rect": [ 443.0, 189.0, 39.0, 22.0 ],
                    "text": "/ 127."
                }
            },
            {
                "box": {
                    "fontface": 1,
                    "id": "obj-38",
                    "maxclass": "comment",
                    "numinlets": 1,
                    "numoutlets": 0,
                    "patching_rect": [ 519.452475247525, 300.0, 70.0, 20.0 ],
                    "text": "<function>",
                    "textcolor": [ 0.870588, 0.415686, 0.062745, 1.0 ]
                }
            },
            {
                "box": {
                    "id": "obj-37",
                    "maxclass": "newobj",
                    "numinlets": 1,
                    "numoutlets": 3,
                    "outlettype": [ "float", "bang", "bang" ],
                    "patching_rect": [ 192.0, 252.0, 40.0, 22.0 ],
                    "text": "t f b b"
                }
            },
            {
                "box": {
                    "addpoints": [ 0.0, 0.0, 0, 56.83033190467901, 0.503939223106623, 0, 97.55922224336194, 0.262048070938932, 0, 241.5301133209445, 0.255328889632806, 0, 356.13852003402036, 0.0, 0 ],
                    "classic_curve": 1,
                    "domain": 356.14300537109375,
                    "id": "obj-36",
                    "maxclass": "function",
                    "numinlets": 1,
                    "numoutlets": 4,
                    "outlettype": [ "float", "", "", "bang" ],
                    "parameter_enable": 0,
                    "patching_rect": [ 317.5, 300.0, 200.0, 100.0 ],
                    "range": [ 0.0, 0.5039370059967041 ]
                }
            },
            {
                "box": {
                    "color": [ 0.784314, 0.145098, 0.023529, 1.0 ],
                    "id": "obj-35",
                    "maxclass": "newobj",
                    "numinlets": 2,
                    "numoutlets": 1,
                    "outlettype": [ "signal" ],
                    "patching_rect": [ 192.0, 436.0, 204.83333333333337, 22.0 ],
                    "text": "*~"
                }
            },
            {
                "box": {
                    "color": [ 0.784314, 0.145098, 0.023529, 1.0 ],
                    "id": "obj-34",
                    "maxclass": "newobj",
                    "numinlets": 2,
                    "numoutlets": 1,
                    "outlettype": [ "signal" ],
                    "patching_rect": [ 192.0, 300.0, 43.0, 22.0 ],
                    "text": "cycle~"
                }
            },
            {
                "box": {
                    "fontface": 1,
                    "id": "obj-14",
                    "maxclass": "comment",
                    "numinlets": 1,
                    "numoutlets": 0,
                    "patching_rect": [ 163.0, 158.0, 27.0, 20.0 ],
                    "text": "<f>",
                    "textcolor": [ 0.870588, 0.415686, 0.062745, 1.0 ]
                }
            },
            {
                "box": {
                    "fontface": 2,
                    "id": "obj-11",
                    "maxclass": "comment",
                    "numinlets": 1,
                    "numoutlets": 0,
                    "patching_rect": [ 510.0, 171.0, 47.0, 20.0 ],
                    "text": "volume",
                    "textcolor": [ 0.011765, 0.396078, 0.752941, 1.0 ]
                }
            },
            {
                "box": {
                    "fontface": 2,
                    "id": "obj-10",
                    "maxclass": "comment",
                    "numinlets": 1,
                    "numoutlets": 0,
                    "patching_rect": [ 261.0, 171.0, 34.0, 20.0 ],
                    "text": "pitch",
                    "textcolor": [ 0.011765, 0.396078, 0.752941, 1.0 ]
                }
            },
            {
                "box": {
                    "fontface": 2,
                    "id": "obj-8",
                    "maxclass": "comment",
                    "numinlets": 1,
                    "numoutlets": 0,
                    "patching_rect": [ 28.5, 197.0, 164.0, 20.0 ],
                    "text": "convert from midicents to Hz.",
                    "textcolor": [ 0.011765, 0.396078, 0.752941, 1.0 ]
                }
            },
            {
                "box": {
                    "fontface": 2,
                    "id": "obj-7",
                    "maxclass": "comment",
                    "numinlets": 1,
                    "numoutlets": 0,
                    "patching_rect": [ 244.0, 224.0, 37.0, 20.0 ],
                    "text": "<Hz>",
                    "textcolor": [ 0.011765, 0.396078, 0.752941, 1.0 ]
                }
            },
            {
                "box": {
                    "format": 6,
                    "id": "obj-33",
                    "maxclass": "flonum",
                    "numinlets": 1,
                    "numoutlets": 2,
                    "outlettype": [ "", "bang" ],
                    "parameter_enable": 0,
                    "patching_rect": [ 192.0, 224.0, 50.0, 22.0 ]
                }
            },
            {
                "box": {
                    "id": "obj-32",
                    "maxclass": "newobj",
                    "numinlets": 2,
                    "numoutlets": 1,
                    "outlettype": [ "" ],
                    "patching_rect": [ 192.0, 196.0, 103.0, 22.0 ],
                    "text": "bach.mc2f @out t"
                }
            },
            {
                "box": {
                    "fontface": 2,
                    "id": "obj-31",
                    "maxclass": "comment",
                    "numinlets": 1,
                    "numoutlets": 0,
                    "patching_rect": [ 495.0, 157.0, 63.0, 20.0 ],
                    "text": "<velocity>",
                    "textcolor": [ 0.011765, 0.396078, 0.752941, 1.0 ]
                }
            },
            {
                "box": {
                    "fontface": 2,
                    "id": "obj-30",
                    "maxclass": "comment",
                    "numinlets": 1,
                    "numoutlets": 0,
                    "patching_rect": [ 368.5, 157.0, 66.0, 20.0 ],
                    "text": "<duration>",
                    "textcolor": [ 0.011765, 0.396078, 0.752941, 1.0 ]
                }
            },
            {
                "box": {
                    "fontface": 2,
                    "id": "obj-29",
                    "maxclass": "comment",
                    "numinlets": 1,
                    "numoutlets": 0,
                    "patching_rect": [ 244.0, 157.0, 73.0, 20.0 ],
                    "text": "<midicents>",
                    "textcolor": [ 0.011765, 0.396078, 0.752941, 1.0 ]
                }
            },
            {
                "box": {
                    "format": 6,
                    "id": "obj-28",
                    "maxclass": "flonum",
                    "numinlets": 1,
                    "numoutlets": 2,
                    "outlettype": [ "", "bang" ],
                    "parameter_enable": 0,
                    "patching_rect": [ 443.0, 157.0, 50.0, 22.0 ]
                }
            },
            {
                "box": {
                    "format": 6,
                    "id": "obj-26",
                    "maxclass": "flonum",
                    "numinlets": 1,
                    "numoutlets": 2,
                    "outlettype": [ "", "bang" ],
                    "parameter_enable": 0,
                    "patching_rect": [ 317.5, 157.0, 50.0, 22.0 ]
                }
            },
            {
                "box": {
                    "format": 6,
                    "id": "obj-24",
                    "maxclass": "flonum",
                    "numinlets": 1,
                    "numoutlets": 2,
                    "outlettype": [ "", "bang" ],
                    "parameter_enable": 0,
                    "patching_rect": [ 192.0, 157.0, 50.0, 22.0 ]
                }
            },
            {
                "box": {
                    "fontface": 2,
                    "id": "obj-22",
                    "linecount": 3,
                    "maxclass": "comment",
                    "numinlets": 1,
                    "numoutlets": 0,
                    "patching_rect": [ 464.0, 98.0, 426.0, 47.0 ],
                    "text": "<= <bach.playkeys> is a simple way to get the info we need to make our own synthesizers. @out t means it will return \"text output\" that we can use in our regular Max objects. Without @out t, we would get an encoded bach list (llll).",
                    "textcolor": [ 0.011765, 0.396078, 0.752941, 1.0 ]
                }
            },
            {
                "box": {
                    "id": "obj-21",
                    "maxclass": "newobj",
                    "numinlets": 1,
                    "numoutlets": 3,
                    "outlettype": [ "", "", "" ],
                    "patching_rect": [ 192.0, 98.0, 270.0, 22.0 ],
                    "saved_object_attributes": {
                        "versionnumber": 80100
                    },
                    "text": "bach.playkeys cents duration velocity @out t"
                }
            }
        ],
        "lines": [
            {
                "patchline": {
                    "destination": [ "obj-21", 0 ],
                    "source": [ "obj-18", 0 ]
                }
            },
            {
                "patchline": {
                    "destination": [ "obj-24", 0 ],
                    "source": [ "obj-21", 0 ]
                }
            },
            {
                "patchline": {
                    "destination": [ "obj-26", 0 ],
                    "source": [ "obj-21", 1 ]
                }
            },
            {
                "patchline": {
                    "destination": [ "obj-28", 0 ],
                    "source": [ "obj-21", 2 ]
                }
            },
            {
                "patchline": {
                    "destination": [ "obj-32", 0 ],
                    "source": [ "obj-24", 0 ]
                }
            },
            {
                "patchline": {
                    "destination": [ "obj-43", 0 ],
                    "source": [ "obj-26", 0 ]
                }
            },
            {
                "patchline": {
                    "destination": [ "obj-39", 0 ],
                    "source": [ "obj-28", 0 ]
                }
            },
            {
                "patchline": {
                    "destination": [ "obj-33", 0 ],
                    "source": [ "obj-32", 0 ]
                }
            },
            {
                "patchline": {
                    "destination": [ "obj-37", 0 ],
                    "source": [ "obj-33", 0 ]
                }
            },
            {
                "patchline": {
                    "destination": [ "obj-35", 0 ],
                    "source": [ "obj-34", 0 ]
                }
            },
            {
                "patchline": {
                    "destination": [ "obj-23", 0 ],
                    "source": [ "obj-35", 0 ]
                }
            },
            {
                "patchline": {
                    "destination": [ "obj-44", 0 ],
                    "source": [ "obj-36", 1 ]
                }
            },
            {
                "patchline": {
                    "destination": [ "obj-34", 0 ],
                    "source": [ "obj-37", 0 ]
                }
            },
            {
                "patchline": {
                    "destination": [ "obj-36", 0 ],
                    "source": [ "obj-37", 1 ]
                }
            },
            {
                "patchline": {
                    "color": [ 0.0, 0.6065627336502075, 0.0, 1.0 ],
                    "destination": [ "obj-46", 0 ],
                    "source": [ "obj-37", 2 ]
                }
            },
            {
                "patchline": {
                    "destination": [ "obj-42", 0 ],
                    "source": [ "obj-39", 0 ]
                }
            },
            {
                "patchline": {
                    "destination": [ "obj-36", 0 ],
                    "source": [ "obj-42", 0 ]
                }
            },
            {
                "patchline": {
                    "destination": [ "obj-36", 0 ],
                    "source": [ "obj-43", 0 ]
                }
            },
            {
                "patchline": {
                    "destination": [ "obj-35", 1 ],
                    "source": [ "obj-44", 0 ]
                }
            },
            {
                "patchline": {
                    "destination": [ "obj-50", 0 ],
                    "source": [ "obj-44", 1 ]
                }
            },
            {
                "patchline": {
                    "destination": [ "obj-27", 0 ],
                    "source": [ "obj-46", 0 ]
                }
            },
            {
                "patchline": {
                    "destination": [ "obj-27", 0 ],
                    "source": [ "obj-50", 0 ]
                }
            },
            {
                "patchline": {
                    "destination": [ "obj-27", 0 ],
                    "source": [ "obj-53", 0 ]
                }
            }
        ],
        "styles": [
            {
                "name": "ksliderWhite",
                "default": {
                    "color": [ 1.0, 1.0, 1.0, 1.0 ]
                },
                "parentstyle": "",
                "multi": 0
            },
            {
                "name": "messageBlue",
                "default": {
                    "bgfillcolor": {
                        "angle": 270.0,
                        "autogradient": 0,
                        "color": [ 0.290196, 0.309804, 0.301961, 1.0 ],
                        "color1": [ 0.317647, 0.654902, 0.976471, 1.0 ],
                        "color2": [ 0.290196, 0.309804, 0.301961, 1.0 ],
                        "proportion": 0.660494,
                        "type": "gradient"
                    }
                },
                "parentstyle": "",
                "multi": 0
            },
            {
                "name": "newobjBlue-1",
                "default": {
                    "accentcolor": [ 0.317647, 0.654902, 0.976471, 1.0 ]
                },
                "parentstyle": "",
                "multi": 0
            },
            {
                "name": "newobjCyan-1",
                "default": {
                    "accentcolor": [ 0.029546, 0.773327, 0.821113, 1.0 ]
                },
                "parentstyle": "",
                "multi": 0
            },
            {
                "name": "newobjGold-1",
                "default": {
                    "accentcolor": [ 0.764706, 0.592157, 0.101961, 1.0 ]
                },
                "parentstyle": "",
                "multi": 0
            },
            {
                "name": "newobjGreen-1",
                "default": {
                    "accentcolor": [ 0.0, 0.533333, 0.168627, 1.0 ]
                },
                "parentstyle": "",
                "multi": 0
            },
            {
                "name": "newobjRed-1",
                "default": {
                    "accentcolor": [ 0.784314, 0.145098, 0.023529, 1.0 ]
                },
                "parentstyle": "",
                "multi": 0
            },
            {
                "name": "newobjYellow-1",
                "default": {
                    "accentcolor": [ 0.82517, 0.78181, 0.059545, 1.0 ],
                    "fontsize": [ 12.059008 ]
                },
                "parentstyle": "",
                "multi": 0
            }
        ]
    }
}