{
    "patcher": {
        "fileversion": 1,
        "appversion": {
            "major": 9,
            "minor": 1,
            "revision": 2,
            "architecture": "x64",
            "modernui": 1
        },
        "classnamespace": "box",
        "rect": [ 724.0, 119.0, 1000.0, 685.0 ],
        "boxes": [
            {
                "box": {
                    "id": "obj-29",
                    "linecount": 8,
                    "maxclass": "comment",
                    "numinlets": 1,
                    "numoutlets": 0,
                    "patching_rect": [ 44.1379280090332, 498.62065547704697, 150.0, 114.0 ],
                    "text": "This is an example of an ABSTRACTION. It is saved on a disk, and is loaded without a patch called \"p\", that is, loaded by itself. You can make infinite copies of this patch!"
                }
            },
            {
                "box": {
                    "id": "obj-27",
                    "maxclass": "newobj",
                    "numinlets": 1,
                    "numoutlets": 1,
                    "outlettype": [ "" ],
                    "patching_rect": [ 59.31034076213837, 251.7241206765175, 83.0, 22.0 ],
                    "text": "loadmess 128"
                }
            },
            {
                "box": {
                    "id": "obj-23",
                    "maxclass": "newobj",
                    "numinlets": 1,
                    "numoutlets": 1,
                    "outlettype": [ "signal" ],
                    "patching_rect": [ 357.93100994825363, 266.2068783044815, 81.0, 22.0 ],
                    "text": "receive~ out2"
                }
            },
            {
                "box": {
                    "id": "obj-24",
                    "maxclass": "live.meter~",
                    "numinlets": 1,
                    "numoutlets": 2,
                    "outlettype": [ "float", "int" ],
                    "patching_rect": [ 394.48273158073425, 326.206874191761, 7.0, 126.0 ],
                    "slidercolor": [ 0.079348079365577, 0.07934804057877, 0.079348050547289, 1.0 ]
                }
            },
            {
                "box": {
                    "id": "obj-25",
                    "maxclass": "live.meter~",
                    "numinlets": 1,
                    "numoutlets": 2,
                    "outlettype": [ "float", "int" ],
                    "patching_rect": [ 337.2413561940193, 326.206874191761, 7.0, 126.0 ],
                    "slidercolor": [ 0.079348079365577, 0.07934804057877, 0.079348050547289, 1.0 ]
                }
            },
            {
                "box": {
                    "id": "obj-26",
                    "maxclass": "gain~",
                    "multichannelvariant": 0,
                    "numinlets": 1,
                    "numoutlets": 2,
                    "outlettype": [ "signal", "" ],
                    "parameter_enable": 0,
                    "patching_rect": [ 357.93100994825363, 311.724116563797, 22.0, 140.0 ]
                }
            },
            {
                "box": {
                    "id": "obj-22",
                    "maxclass": "comment",
                    "numinlets": 1,
                    "numoutlets": 0,
                    "patching_rect": [ 299.3103243112564, 509.65513747930527, 72.00000214576721, 20.0 ],
                    "text": "<ezdac~>"
                }
            },
            {
                "box": {
                    "id": "obj-20",
                    "maxclass": "ezdac~",
                    "numinlets": 2,
                    "numoutlets": 0,
                    "patching_rect": [ 236.55170792341232, 497.2413452267647, 45.0, 45.0 ]
                }
            },
            {
                "box": {
                    "id": "obj-19",
                    "maxclass": "newobj",
                    "numinlets": 1,
                    "numoutlets": 1,
                    "outlettype": [ "signal" ],
                    "patching_rect": [ 236.55170792341232, 266.2068783044815, 81.0, 22.0 ],
                    "text": "receive~ out1"
                }
            },
            {
                "box": {
                    "id": "obj-17",
                    "maxclass": "live.meter~",
                    "numinlets": 1,
                    "numoutlets": 2,
                    "outlettype": [ "float", "int" ],
                    "patching_rect": [ 273.10342955589294, 326.206874191761, 7.0, 126.0 ],
                    "slidercolor": [ 0.079348079365577, 0.07934804057877, 0.079348050547289, 1.0 ]
                }
            },
            {
                "box": {
                    "id": "obj-16",
                    "maxclass": "live.meter~",
                    "numinlets": 1,
                    "numoutlets": 2,
                    "outlettype": [ "float", "int" ],
                    "patching_rect": [ 215.862054169178, 326.206874191761, 7.0, 126.0 ],
                    "slidercolor": [ 0.079348079365577, 0.07934804057877, 0.079348050547289, 1.0 ]
                }
            },
            {
                "box": {
                    "id": "obj-15",
                    "maxclass": "gain~",
                    "multichannelvariant": 0,
                    "numinlets": 1,
                    "numoutlets": 2,
                    "outlettype": [ "signal", "" ],
                    "parameter_enable": 0,
                    "patching_rect": [ 236.55170792341232, 312.41377168893814, 22.0, 140.0 ]
                }
            },
            {
                "box": {
                    "id": "obj-14",
                    "linecount": 3,
                    "maxclass": "comment",
                    "numinlets": 1,
                    "numoutlets": 0,
                    "patching_rect": [ 99.99999314546585, 332.4137703180313, 51.35134792327881, 47.0 ],
                    "text": "master\ncontrol \nfader"
                }
            },
            {
                "box": {
                    "id": "obj-12",
                    "maxclass": "slider",
                    "numinlets": 1,
                    "numoutlets": 1,
                    "outlettype": [ "" ],
                    "parameter_enable": 0,
                    "patching_rect": [ 59.31034076213837, 312.41377168893814, 20.0, 140.0 ]
                }
            },
            {
                "box": {
                    "id": "obj-11",
                    "maxclass": "comment",
                    "numinlets": 1,
                    "numoutlets": 0,
                    "patching_rect": [ 408.47458600997925, 76.27118825912476, 66.31579184532166, 20.0 ],
                    "text": "<gain~>"
                }
            },
            {
                "box": {
                    "id": "obj-9",
                    "maxclass": "gain~",
                    "multichannelvariant": 0,
                    "numinlets": 1,
                    "numoutlets": 2,
                    "outlettype": [ "signal", "" ],
                    "parameter_enable": 0,
                    "patching_rect": [ 354.2372965812683, 38.983051776885986, 22.0, 140.0 ]
                }
            },
            {
                "box": {
                    "id": "obj-8",
                    "maxclass": "comment",
                    "numinlets": 1,
                    "numoutlets": 0,
                    "patching_rect": [ 93.22034120559692, 50.847458839416504, 60.00000214576721, 20.0 ],
                    "text": "<slider>"
                }
            },
            {
                "box": {
                    "id": "obj-6",
                    "maxclass": "slider",
                    "numinlets": 1,
                    "numoutlets": 1,
                    "outlettype": [ "" ],
                    "parameter_enable": 0,
                    "patching_rect": [ 61.016950607299805, 38.983051776885986, 20.0, 140.0 ]
                }
            },
            {
                "box": {
                    "id": "obj-5",
                    "maxclass": "comment",
                    "numinlets": 1,
                    "numoutlets": 0,
                    "patching_rect": [ 233.89831066131592, 72.88135766983032, 87.3684241771698, 20.0 ],
                    "text": "<live.meter~>"
                }
            },
            {
                "box": {
                    "id": "obj-3",
                    "maxclass": "live.meter~",
                    "numinlets": 1,
                    "numoutlets": 2,
                    "outlettype": [ "float", "int" ],
                    "patching_rect": [ 206.77966594696045, 59.32203531265259, 5.0, 100.0 ],
                    "slidercolor": [ 0.079348079365577, 0.07934804057877, 0.079348050547289, 1.0 ]
                }
            }
        ],
        "lines": [
            {
                "patchline": {
                    "destination": [ "obj-15", 0 ],
                    "order": 1,
                    "source": [ "obj-12", 0 ]
                }
            },
            {
                "patchline": {
                    "destination": [ "obj-26", 0 ],
                    "order": 0,
                    "source": [ "obj-12", 0 ]
                }
            },
            {
                "patchline": {
                    "destination": [ "obj-17", 0 ],
                    "order": 0,
                    "source": [ "obj-15", 0 ]
                }
            },
            {
                "patchline": {
                    "destination": [ "obj-20", 0 ],
                    "order": 1,
                    "source": [ "obj-15", 0 ]
                }
            },
            {
                "patchline": {
                    "destination": [ "obj-15", 0 ],
                    "order": 0,
                    "source": [ "obj-19", 0 ]
                }
            },
            {
                "patchline": {
                    "destination": [ "obj-16", 0 ],
                    "order": 1,
                    "source": [ "obj-19", 0 ]
                }
            },
            {
                "patchline": {
                    "destination": [ "obj-25", 0 ],
                    "order": 1,
                    "source": [ "obj-23", 0 ]
                }
            },
            {
                "patchline": {
                    "destination": [ "obj-26", 0 ],
                    "order": 0,
                    "source": [ "obj-23", 0 ]
                }
            },
            {
                "patchline": {
                    "destination": [ "obj-20", 1 ],
                    "order": 1,
                    "source": [ "obj-26", 0 ]
                }
            },
            {
                "patchline": {
                    "destination": [ "obj-24", 0 ],
                    "order": 0,
                    "source": [ "obj-26", 0 ]
                }
            },
            {
                "patchline": {
                    "destination": [ "obj-12", 0 ],
                    "source": [ "obj-27", 0 ]
                }
            }
        ],
        "autosave": 0
    }
}